<svg xmlns="http://www.w3.org/2000/svg" width="663.296" height="78.392" viewBox="0 0 663.296 78.392">
  <g id="Group_1" data-name="Group 1" transform="translate(-386.452 -494.608)">
    <path id="Path_1" data-name="Path 1" d="M22.8,59.768c11.52,0,16.512-6.08,16.512-13.184,0-15.936-24.832-11.008-24.832-18.944,0-3.2,2.816-5.312,7.232-5.312A17.354,17.354,0,0,1,34.06,27.192l4.288-5.568c-3.968-3.84-9.344-5.952-16-5.952C13,15.672,6.8,21.112,6.8,28.152c0,15.744,24.9,10.176,24.9,19.136,0,2.816-2.432,5.824-8.576,5.824a18.414,18.414,0,0,1-13.5-5.888l-4.16,5.76C9.228,57.016,14.924,59.768,22.8,59.768ZM53.708,59V43.064H64.972c8.9,0,13.952-6.144,13.952-13.376S73.932,16.312,64.972,16.312H46.22V59Zm10.24-22.528H53.708V22.9h10.24c4.224,0,7.3,2.688,7.3,6.784S68.172,36.472,63.948,36.472Zm41.088,23.3c12.8,0,21.824-9.344,21.824-22.08s-9.024-22.08-21.824-22.08-21.824,9.344-21.824,22.08S92.236,59.768,105.036,59.768Zm0-6.656c-8.64,0-14.144-6.656-14.144-15.424,0-8.832,5.5-15.424,14.144-15.424,8.576,0,14.144,6.592,14.144,15.424C119.18,46.456,113.612,53.112,105.036,53.112ZM167.116,59,156.684,42.232C161.8,41.4,166.8,37.3,166.8,29.688c0-7.872-5.5-13.376-13.952-13.376H134.092V59h7.488V43.064H149L158.476,59Zm-15.3-22.528H141.58V22.9h10.24c4.224,0,7.3,2.688,7.3,6.784S156.044,36.472,151.82,36.472ZM191.308,59V22.9h12.928V16.312H170.892V22.9H183.82V59Zm33.536.768c11.52,0,16.512-6.08,16.512-13.184,0-15.936-24.832-11.008-24.832-18.944,0-3.2,2.816-5.312,7.232-5.312a17.353,17.353,0,0,1,12.352,4.864l4.288-5.568c-3.968-3.84-9.344-5.952-16-5.952-9.344,0-15.552,5.44-15.552,12.48,0,15.744,24.9,10.176,24.9,19.136,0,2.816-2.432,5.824-8.576,5.824a18.414,18.414,0,0,1-13.5-5.888l-4.16,5.76C211.276,57.016,216.972,59.768,224.844,59.768ZM300.62,59,283.148,16.312H278.6L261.132,59h4.224l4.224-10.5h22.592L296.4,59Zm-9.664-13.824H270.8l10.048-24.96ZM341,59V16.312h-3.648v36.16L310.6,16.312h-3.712V59h3.648V22.328L337.42,59Zm24.256,0c13.248,0,21.568-9.472,21.568-21.312,0-11.712-8.32-21.376-21.568-21.376H351.628V59Zm0-3.328h-9.984V19.64h9.984c11.328,0,17.728,8.064,17.728,18.048S376.524,55.672,365.26,55.672Zm60.928,4.1c11.52,0,16.512-6.08,16.512-13.184,0-15.936-24.832-11.008-24.832-18.944,0-3.2,2.816-5.312,7.232-5.312a17.353,17.353,0,0,1,12.352,4.864l4.288-5.568c-3.968-3.84-9.344-5.952-16-5.952-9.344,0-15.552,5.44-15.552,12.48,0,15.744,24.9,10.176,24.9,19.136,0,2.816-2.432,5.824-8.576,5.824A18.414,18.414,0,0,1,413,47.224l-4.16,5.76C412.62,57.016,418.316,59.768,426.188,59.768Zm43.328,0c12.8,0,21.824-9.344,21.824-22.08s-9.024-22.08-21.824-22.08-21.824,9.344-21.824,22.08S456.716,59.768,469.516,59.768Zm0-6.656c-8.64,0-14.144-6.656-14.144-15.424,0-8.832,5.5-15.424,14.144-15.424,8.576,0,14.144,6.592,14.144,15.424C483.66,46.456,478.092,53.112,469.516,53.112Zm49.536,6.656c8.64,0,13.888-4.48,17.152-9.6L529.8,46.9a12.536,12.536,0,0,1-10.752,6.208c-8.448,0-14.72-6.464-14.72-15.424s6.272-15.424,14.72-15.424A12.674,12.674,0,0,1,529.8,28.472l6.4-3.264a19.3,19.3,0,0,0-17.152-9.6c-12.608,0-22.4,8.96-22.4,22.08S506.444,59.768,519.052,59.768ZM549.708,59V16.312H542.22V59Zm38.336,0V52.408h-21.76V40.568H587.6V33.976H566.284V22.9h21.76V16.312H558.8V59Zm25.344,0V22.9h12.928V16.312H592.972V22.9H605.9V59Zm38.848,0V41.272l16.512-24.96h-8.576l-11.648,18.3-11.776-18.3h-8.576l16.576,24.96V59Z" transform="translate(381 479)"/>
    <path id="Path_2" data-name="Path 2" d="M4.2,28V7.99H2.49V28Zm20.97,0V7.99H23.46V24.94L10.92,7.99H9.18V28h1.71V10.81L23.49,28Zm6.69,0V7.99H30.15V28Zm11.82,0V9.55h6.54V7.99H35.4V9.55h6.54V28Zm11.79,0V7.99H53.76V28Zm21.45,0L68.73,7.99H66.6L58.41,28h1.98l1.98-4.92H72.96L74.94,28Zm-4.53-6.48H62.94l4.71-11.7ZM84.63,28V9.55h6.54V7.99H76.35V9.55h6.54V28Zm11.79,0V7.99H94.71V28Zm13.26,0,8.19-20.01h-1.98L108.6,26.08,101.34,7.99H99.36L107.55,28Zm23.82,0V26.44H122.52V18.52h10.77V16.96H122.52V9.55H133.5V7.99H120.81V28Z" transform="translate(388 545)"/>
  </g>
</svg>
